<!-- My sills -->
<svg width="50" height="50" viewBox="0 0 50 50" fill="none" xmlns="http://www.w3.org/2000/svg">
	<g id="html5">
<path fill-rule="evenodd" clip-rule="evenodd" d="M18.3125 42.0645L27.2623 6.6875L31.4375 7.87241L22.4878 43.3125L18.3125 42.0645Z" fill="#7572D5"/>
<path fill-rule="evenodd" clip-rule="evenodd" d="M13.5025 12.6875L16.5625 15.9278L7.99501 25.0001L16.5625 34.0721L13.5025 37.3125L1.875 25.0001L13.5025 12.6875Z" fill="#7572D5"/>
<path fill-rule="evenodd" clip-rule="evenodd" d="M36.4976 12.6875L33.4375 15.9278L42.0051 25.0001L33.4375 34.0721L36.4976 37.3125L48.125 25.0001L36.4976 12.6875Z" fill="#7572D5"/>
</g>
<g id="css3">
	<path d="M33.0508 8.84371L7.94605 8.83771L8.3515 13.7547L27.6381 13.7577L27.1519 18.8502H14.5035L14.9608 23.6742H26.7358L26.0392 30.2806L20.4969 31.7886L14.8663 30.2701L14.508 26.3134H9.53586L10.0877 33.5411L20.4969 36.7341L30.7309 33.8652L33.0493 8.84521L33.0508 8.84371ZM0.498444 0.568726H40.4984L36.86 40.9999L20.4542 45.5687L4.13993 40.9968L0.498444 0.568726Z" fill="#7572D5"/>

</g>
<g id="react">
	<path d="M47.8125 25C47.8125 22.0833 44.6875 19.375 39.4792 17.5L38.5417 17.1875V16.7708C39.6875 11.0416 38.8542 6.7708 36.25 5.2083C33.6458 3.6458 29.7917 5.10414 25.625 8.74997L25 9.37497L24.7917 9.16664H24.5833C20.3125 5.2083 16.1458 3.85414 13.5417 5.31247C10.9375 6.7708 10.2083 10.8333 11.25 16.1458C11.3596 16.4838 11.4295 16.8333 11.4583 17.1875L10.3125 17.6041C5.20833 19.375 2.1875 22.0833 2.1875 25C2.1875 27.9166 5.52083 30.8333 10.7292 32.7083L11.4583 32.9166C11.3296 33.2854 11.2593 33.672 11.25 34.0625C10.2083 39.2708 11.1458 43.2291 13.5417 44.6875C15.9375 46.1458 20.3125 44.7916 24.4792 41.1458L25.1042 40.625L25.9375 41.4583C28.8542 43.9583 31.7708 45.3125 34.0625 45.3125C34.8708 45.3309 35.6671 45.1137 36.3542 44.6875C38.9583 43.2291 39.8958 38.9583 38.75 33.5416V33.3333C38.705 33.1619 38.6702 32.988 38.6458 32.8125H38.9583C44.4792 30.8333 47.8125 28.0208 47.8125 25ZM44.7917 25C44.7917 26.25 42.5 28.4375 38.0208 29.8958H37.8125C37.2664 28.2202 36.6051 26.5843 35.8333 25C36.5625 23.3333 37.1875 21.6666 37.7083 20.1041L38.5417 20.3125C42.7083 21.7708 44.7917 23.75 44.7917 25ZM27.9167 39.1666L27.0833 38.5416C28.2761 37.2201 29.3891 35.8287 30.4167 34.375L35.7292 33.5416C35.8333 33.75 35.8333 33.9583 35.9375 34.0625C36.3087 35.9492 36.379 37.8829 36.1458 39.7916C35.9995 40.7045 35.5608 41.5452 34.8958 42.1875C33.8542 42.8125 31.0417 41.9791 27.9167 39.1666ZM26.5625 34.5833L25.1042 36.4583L23.4375 34.5833H26.5625ZM12.2917 20C12.8152 21.7174 13.4771 23.3895 14.2708 25C13.4765 26.646 12.8146 28.3528 12.2917 30.1041L11.6667 29.8958C9.84256 29.3201 8.1454 28.4008 6.66667 27.1875C6.28377 26.9455 5.95605 26.6257 5.7048 26.2488C5.45356 25.872 5.2844 25.4465 5.20833 25C5.20833 23.75 7.29167 21.7708 11.25 20.4166L12.2917 20ZM23.4375 15.4166L25 13.6458L26.5625 15.4166H23.4375ZM34.8958 7.81247C36.0417 8.43747 36.6667 11.5625 35.7292 16.1458C35.734 16.2022 35.7272 16.2591 35.7093 16.3128C35.6914 16.3665 35.6627 16.416 35.625 16.4583L30.4167 15.625C29.3891 14.1712 28.2761 12.7799 27.0833 11.4583L27.7083 10.9375C31.0417 8.0208 33.75 7.18747 34.8958 7.81247ZM17.5 18.8541L16.6667 20.2083L15.9375 21.5625C15.625 20.8333 15.4167 20.1041 15.1042 19.2708L17.5 18.8541ZM15.1042 30.7291C15.4167 30 15.625 29.2708 15.9375 28.4375L16.6667 29.7916L17.5 31.1458L15.1042 30.7291ZM32.5 25C31.9699 26.142 31.3788 27.2548 30.7292 28.3333C30.1042 29.4791 29.375 30.5208 28.75 31.5625H21.25C20.5208 30.4166 19.7917 29.375 19.2708 28.3333C18.6161 27.2577 18.0248 26.1447 17.5 25C18.0054 23.8458 18.5974 22.7315 19.2708 21.6666C19.8693 20.5874 20.5301 19.544 21.25 18.5416C23.7457 18.3334 26.2543 18.3334 28.75 18.5416C29.4792 19.5833 30.1042 20.625 30.7292 21.6666C31.4026 22.7315 31.9946 23.8458 32.5 25ZM33.3333 20.2083L32.5 18.8541L34.8958 19.375C34.6639 20.1208 34.3856 20.8514 34.0625 21.5625L33.3333 20.2083ZM32.5 31.1458L33.3333 29.7916L34.0625 28.3333L35 30.7291L32.5 31.1458ZM22.8125 11.3541H22.9167L19.5833 15.5208L14.375 16.3541C14.2708 16.0416 14.2708 15.8333 14.1667 15.5208C13.3333 11.25 13.9583 8.3333 15 7.81247C15.2766 7.63082 15.61 7.55672 15.9375 7.60414C17.3958 7.60414 19.8958 8.6458 22.7083 11.1458L22.8125 11.3541ZM14.1667 34.5833C14.1857 34.2617 14.256 33.9452 14.375 33.6458L19.6875 34.375C20.689 35.8481 21.8034 37.2412 23.0208 38.5416L22.8125 38.75L22.6042 38.9583C21.184 40.2738 19.5211 41.2999 17.7083 41.9791C17.3107 42.1874 16.875 42.3133 16.4275 42.3491C15.98 42.3849 15.5299 42.3299 15.1042 42.1875C13.9583 41.5625 13.3333 38.75 14.1667 34.5833Z" fill="#7572D5"/>
<path d="M25 20.4166C24.0894 20.3959 23.1932 20.647 22.4259 21.1379C21.6586 21.6287 21.0549 22.3371 20.692 23.1726C20.3291 24.008 20.2233 24.9327 20.3882 25.8285C20.5532 26.7243 20.9812 27.5507 21.6179 28.2022C22.2545 28.8536 23.0709 29.3006 23.9627 29.4861C24.8545 29.6715 25.7813 29.587 26.6249 29.2434C27.4685 28.8998 28.1905 28.3126 28.6989 27.5568C29.2073 26.801 29.4789 25.9108 29.4792 24.9999C29.4795 23.8022 29.0109 22.6519 28.1738 21.7953C27.3366 20.9387 26.1974 20.4438 25 20.4166Z" fill="#7572D5"/>
	</g>
	<g id="typescript">
		<path d="M0 20V40H40V0H0V20ZM32.235 18.4067C33.2517 18.66 34.025 19.1117 34.7367 19.8483C35.105 20.2417 35.6517 20.9583 35.695 21.1317C35.7083 21.1817 33.9683 22.3483 32.915 23.0033C32.8767 23.0283 32.7233 22.8633 32.5533 22.61C32.0367 21.86 31.4983 21.5367 30.6733 21.48C29.46 21.3967 28.68 22.0317 28.6867 23.0917C28.6756 23.3523 28.7343 23.6112 28.8567 23.8417C29.1233 24.3933 29.62 24.725 31.1733 25.3967C34.0383 26.63 35.2633 27.4417 36.025 28.5967C36.875 29.885 37.0667 31.9433 36.4883 33.4733C35.855 35.1367 34.28 36.2667 32.0633 36.64C31.3783 36.7617 29.7533 36.7433 29.0167 36.61C27.41 36.3233 25.8867 35.53 24.9467 34.4883C24.5783 34.0833 23.86 33.0217 23.905 32.9467C23.9233 32.92 24.0883 32.8183 24.2717 32.7117C24.4517 32.61 25.1233 32.2217 25.7583 31.8533L26.9083 31.1867L27.15 31.5433C27.4867 32.0567 28.2217 32.7617 28.6667 32.9967C29.9433 33.67 31.695 33.575 32.5583 32.8C32.7319 32.6538 32.8694 32.4693 32.9599 32.2612C33.0504 32.053 33.0915 31.8267 33.08 31.6C33.08 31.1367 33.0217 30.9333 32.78 30.5833C32.47 30.14 31.835 29.7667 30.0317 28.9833C27.9683 28.095 27.08 27.5433 26.2667 26.6667C25.759 26.0881 25.3841 25.4055 25.1683 24.6667C25.0167 24.1017 24.9783 22.685 25.0983 22.115C25.5233 20.12 27.0283 18.7317 29.2 18.3183C29.905 18.185 31.5433 18.235 32.235 18.4067ZM22.845 20.0767L22.8583 21.715H17.65V36.5083H13.9667V21.715H8.76333V20.1083C8.76333 19.2183 8.78167 18.475 8.80667 18.4583C8.82667 18.4317 11.995 18.4183 15.835 18.425L22.8267 18.445L22.845 20.0767Z" fill="#7572D5"/>

	</g>
	<g id="styledcomponents">
		<path d="M31.2591 0.25L30.9888 1.64963C30.5708 4.30212 30.7221 5.06099 31.8682 6.04539L32.9747 6.95461L31.8286 12.0305C31.1438 15.0588 30.3041 17.5968 29.7707 18.4308C29.313 19.1503 28.7796 20.2099 28.6642 20.7791C28.4732 21.4592 27.8245 22.1429 26.8334 22.7478C25.9576 23.2418 24.2385 24.5663 23.0203 25.6294C22.0472 26.4993 21.3769 27.0326 21.0129 27.2617L19.8235 28.196C19.4415 28.8046 19.2253 29.295 19.1424 29.6672C19.0595 30.0503 19.1063 30.3044 19.2289 30.4905C19.3478 30.6695 19.5532 30.7948 19.8343 30.8736C20.1671 30.951 20.5097 30.9788 20.8507 30.9559C21.6222 30.9035 22.3858 30.7691 23.1284 30.555C23.3807 30.487 23.5789 30.4225 23.7519 30.3653C24.0186 30.0395 24.6349 29.4238 25.7269 28.3535C28.6246 25.5149 29.731 23.9613 28.5885 24.3802C28.1669 24.5305 28.3579 24.1511 29.0823 23.3922C30.6104 21.9138 31.4862 19.6801 33.317 12.6748C34.7659 7.14433 34.7659 7.06558 35.8327 7.06558C36.3336 7.06558 37.75 7.15149 37.75 7.15149V0.25H34.4992H31.2591ZM18.4216 12.0806C17.3692 12.0735 15.1058 13.6664 8.33025 19.1611C8.03832 19.8519 8.01309 20.328 8.14644 20.6359C8.23294 20.8471 8.39152 20.9938 8.61137 21.1012C8.82761 21.2086 9.10873 21.2731 9.41867 21.2981C10.035 21.3518 10.763 21.2552 11.3504 21.1406L11.7469 21.0511C11.8826 20.8704 12.0608 20.7254 12.2659 20.6287C12.6839 20.3996 14.4391 18.8103 16.1943 17.1064C19.2829 13.9993 20.0073 12.5961 18.7495 12.1415C18.6463 12.1007 18.5326 12.08 18.4216 12.0806ZM26.336 14.2391C25.4098 14.2642 23.7411 15.3309 20.8831 17.5968C19.4487 18.753 18.5405 19.3759 18.0539 19.5047L16.1654 20.9867C15.4554 22.2753 15.3509 23.0736 15.5383 23.5139C15.5852 23.6225 15.6533 23.7208 15.7387 23.8031C15.8241 23.8855 15.925 23.9502 16.0357 23.9936C16.311 24.1015 16.6046 24.1562 16.9006 24.1546C17.608 24.1471 18.3112 24.0448 18.991 23.8504C19.3453 23.7559 19.6952 23.6461 20.0398 23.521L20.1443 23.4781L20.3353 23.3779C20.6957 22.9161 21.5246 22.0462 22.5626 21.044C25.8423 17.9011 27.5181 15.6674 27.1758 14.8333C27.0208 14.4288 26.7541 14.2248 26.336 14.2391ZM17.5998 18.1051C17.3331 18.1337 16.7349 18.5919 15.6573 19.5298C14.1003 20.8972 12.4028 21.6847 11.8154 21.3339C11.6788 21.3645 11.5419 21.3932 11.4045 21.4198C10.8062 21.5379 10.0602 21.6346 9.39344 21.5809C9.07929 21.562 8.77137 21.4855 8.48523 21.3554C8.21533 21.2328 7.99994 21.0164 7.87975 20.7468C7.7464 20.4247 7.7464 20.0238 7.89777 19.5119L5.55514 21.4234L0.253605 25.7798V32.8424L17.6251 19.2506C17.6217 19.1018 17.6411 18.9533 17.6827 18.8103C17.8161 18.3306 17.8089 18.0872 17.5998 18.1087V18.1051ZM25.0746 20.3925C24.8115 20.3925 24.3718 20.7612 23.669 21.5021C22.714 22.5152 21.2111 23.496 20.4146 23.6964L20.292 23.7609C20.1613 23.8145 20.0291 23.8646 19.8956 23.9112C19.6794 23.9828 19.3982 24.0687 19.0739 24.1546C18.4252 24.33 17.6179 24.4911 16.897 24.4732C16.5572 24.4728 16.2207 24.4072 15.9059 24.2799C15.6093 24.1585 15.3716 23.9275 15.2428 23.6356C15.0338 23.138 15.1167 22.44 15.5744 21.4485L0.25 33.4366V37.75H6.98234L21.2615 26.6103C21.6327 26.2022 22.1914 25.6438 22.9446 24.9457C24.9629 23.0879 25.4206 22.4472 25.4206 21.4986C25.4206 20.7612 25.3377 20.3889 25.0746 20.3889V20.3925ZM28.4732 27.3727L27.2514 28.5826C26.5667 29.2269 25.3449 30.0216 24.5088 30.3617L24.343 30.4333L24.3322 30.4512L24.2961 30.487C24.2637 30.512 24.2493 30.5156 24.2241 30.5263C23.8903 30.6518 23.5512 30.7629 23.2077 30.8592C22.4441 31.08 21.6586 31.218 20.8651 31.2709C20.4899 31.2948 20.1132 31.2622 19.7478 31.1743C19.4307 31.1049 19.1508 30.9213 18.9622 30.6588C18.7892 30.3939 18.7387 30.0395 18.836 29.6028C18.9134 29.2919 19.0284 28.9914 19.1784 28.7079L7.6563 37.75H22.9807L24.8115 35.6667C27.3271 32.7529 28.4732 30.6695 28.4732 28.8869V27.3727Z" fill="#7572D5"/>

	</g>
	<g id="webdesign">
		<path d="M17.7083 4.16663C14.2565 4.16663 11.4583 6.96486 11.4583 10.4166C11.4583 13.8684 14.2565 16.6666 17.7083 16.6666H32.2916C35.7435 16.6666 38.5416 13.8684 38.5416 10.4166C38.5416 6.96486 35.7435 4.16663 32.2916 4.16663H17.7083Z" fill="#7572D5"/>
<path d="M32.2917 18.75C28.8398 18.75 26.0417 21.5481 26.0417 25C26.0417 28.4519 28.8398 31.25 32.2917 31.25C35.7436 31.25 38.5417 28.4519 38.5417 25C38.5417 21.5481 35.7436 18.75 32.2917 18.75Z" fill="#7572D5"/>
<path d="M11.4583 25C11.4583 21.5481 14.2565 18.75 17.7083 18.75H23.9583V31.25H17.7083C14.2565 31.25 11.4583 28.4519 11.4583 25Z" fill="#7572D5"/>
<path d="M17.7083 33.3334C14.2565 33.3334 11.4583 36.1315 11.4583 39.5834C11.4583 43.0352 14.2565 45.8334 17.7083 45.8334C21.1602 45.8334 23.9583 43.0352 23.9583 39.5834V33.3334H17.7083Z" fill="#7572D5"/>

	</g>

	<!-- Testimony -->
	<g id="testimony">
		<path d="M13.5417 20.8333C13.0771 20.8333 12.6312 20.9042 12.1875 20.9688C12.3312 20.4854 12.4792 19.9938 12.7167 19.5521C12.9542 18.9104 13.325 18.3542 13.6937 17.7938C14.0021 17.1875 14.5458 16.7771 14.9458 16.2583C15.3646 15.7542 15.9354 15.4188 16.3875 15C16.8312 14.5625 17.4125 14.3438 17.875 14.0354C18.3583 13.7583 18.7792 13.4521 19.2292 13.3063L20.3521 12.8438L21.3396 12.4333L20.3292 8.39584L19.0854 8.69584C18.6875 8.79584 18.2021 8.9125 17.65 9.05209C17.0854 9.15625 16.4833 9.44167 15.8125 9.70209C15.15 9.99792 14.3833 10.1979 13.6708 10.6729C12.9542 11.1271 12.1271 11.5063 11.3979 12.1146C10.6917 12.7417 9.83958 13.2854 9.21041 14.0833C8.52291 14.8292 7.84375 15.6125 7.31666 16.5042C6.70625 17.3542 6.29166 18.2875 5.85416 19.2104C5.45833 20.1333 5.13958 21.0771 4.87916 21.9938C4.38541 23.8313 4.16458 25.5771 4.07916 27.0708C4.00833 28.5667 4.05 29.8104 4.1375 30.7104C4.16875 31.1354 4.22708 31.5479 4.26875 31.8333L4.32083 32.1833L4.375 32.1708C4.74554 33.9017 5.59855 35.4924 6.83534 36.7587C8.07213 38.0251 9.64217 38.9154 11.3638 39.3267C13.0855 39.738 14.8884 39.6535 16.5641 39.083C18.2397 38.5124 19.7196 37.4792 20.8325 36.1027C21.9454 34.7262 22.6459 33.0628 22.853 31.3048C23.06 29.5468 22.7651 27.7662 22.0024 26.1688C21.2396 24.5714 20.0403 23.2226 18.543 22.2784C17.0458 21.3342 15.3118 20.8332 13.5417 20.8333ZM36.4583 20.8333C35.9937 20.8333 35.5479 20.9042 35.1042 20.9688C35.2479 20.4854 35.3958 19.9938 35.6333 19.5521C35.8708 18.9104 36.2417 18.3542 36.6104 17.7938C36.9188 17.1875 37.4625 16.7771 37.8625 16.2583C38.2812 15.7542 38.8521 15.4188 39.3042 15C39.7479 14.5625 40.3292 14.3438 40.7917 14.0354C41.275 13.7583 41.6958 13.4521 42.1458 13.3063L43.2687 12.8438L44.2562 12.4333L43.2458 8.39584L42.0021 8.69584C41.6042 8.79584 41.1187 8.9125 40.5667 9.05209C40.0021 9.15625 39.4 9.44167 38.7292 9.70209C38.0688 10 37.3 10.1979 36.5875 10.675C35.8708 11.1292 35.0438 11.5083 34.3146 12.1167C33.6083 12.7438 32.7562 13.2875 32.1271 14.0833C31.4396 14.8292 30.7604 15.6125 30.2333 16.5042C29.6229 17.3542 29.2083 18.2875 28.7708 19.2104C28.375 20.1333 28.0562 21.0771 27.7958 21.9938C27.3021 23.8313 27.0812 25.5771 26.9958 27.0708C26.925 28.5667 26.9667 29.8104 27.0542 30.7104C27.0854 31.1354 27.1437 31.5479 27.1854 31.8333L27.2375 32.1833L27.2917 32.1708C27.6622 33.9017 28.5152 35.4924 29.752 36.7587C30.9888 38.0251 32.5588 38.9154 34.2805 39.3267C36.0022 39.738 37.8051 39.6535 39.4807 39.083C41.1564 38.5124 42.6363 37.4792 43.7492 36.1027C44.8621 34.7262 45.5626 33.0628 45.7696 31.3048C45.9766 29.5468 45.6817 27.7662 44.919 26.1688C44.1563 24.5714 42.957 23.2226 41.4597 22.2784C39.9624 21.3342 38.2284 20.8332 36.4583 20.8333Z" fill="#7572D5"/>

	</g>

	<!-- Social icons -->
	<g id="instagram">
		<path d="M15.6516 2.09998H5.34844C3.55687 2.09998 2.1 3.55628 2.1 5.34715V8.77799V15.6528C2.1 17.4437 3.55687 18.9 5.34844 18.9H15.6516C17.4431 18.9 18.9 17.4437 18.9 15.6528V8.77143V5.34058C18.8934 3.55628 17.4366 2.09998 15.6516 2.09998ZM16.5834 4.03516H16.9575V4.40251V6.88217L14.1159 6.88873L14.1094 4.04172L16.5834 4.03516ZM8.09812 8.77143C8.63625 8.03016 9.50906 7.53816 10.4934 7.53816C11.4778 7.53816 12.3506 8.0236 12.8887 8.77143C13.2431 9.25687 13.4466 9.85382 13.4466 10.4967C13.4466 12.1236 12.1209 13.4552 10.4869 13.4552C8.85281 13.4552 7.54031 12.1236 7.54031 10.4967C7.54031 9.85382 7.75031 9.25687 8.09812 8.77143ZM17.2594 15.6462C17.2594 16.5318 16.5375 17.2534 15.6516 17.2534H5.34844C4.4625 17.2534 3.74062 16.5318 3.74062 15.6462V8.77143H6.2475C6.03094 9.30279 5.90625 9.88662 5.90625 10.4967C5.90625 13.0288 7.96687 15.0887 10.5 15.0887C13.0331 15.0887 15.0937 13.0288 15.0937 10.4967C15.0937 9.88662 14.9691 9.30279 14.7525 8.77143H17.2594V15.6462Z" fill="currentColor"/>

	</g>
	<g id="telegram">
		<path d="M18.9057 4.76449L16.3705 16.7208C16.1791 17.5644 15.6804 17.7745 14.9717 17.3772L11.1085 14.5305L9.24472 16.3235C9.0383 16.5299 8.86608 16.7022 8.46824 16.7022L8.74607 12.7681L15.9054 6.29885C16.2169 6.02162 15.8376 5.86741 15.4218 6.14524L6.57084 11.7186L2.76043 10.5257C1.93174 10.2671 1.91674 9.69701 2.93325 9.29917L17.837 3.55716C18.5271 3.29854 19.1308 3.71018 18.9057 4.76449Z" fill="currentColor"/>

	</g>
	<g id="vk">
		<path d="M18.1696 13.9941C17.8038 13.5391 17.3881 13.1314 16.9861 12.737C16.8432 12.5968 16.6954 12.4518 16.5529 12.3076C16.1439 11.8932 16.129 11.7375 16.4529 11.2668C16.6769 10.9424 16.9145 10.6175 17.1442 10.3033C17.3526 10.0183 17.568 9.72351 17.7746 9.42777L17.817 9.36697C18.2117 8.80103 18.6199 8.21583 18.8372 7.50988C18.8936 7.32363 18.9528 7.04955 18.8174 6.82036C18.682 6.59137 18.4195 6.52151 18.2337 6.48888C18.1418 6.47273 18.0506 6.47053 17.9659 6.47053L15.3809 6.46861L15.3595 6.46842C14.9687 6.46842 14.7053 6.65927 14.5544 7.05194C14.4103 7.42713 14.252 7.82665 14.0714 8.20653C13.7119 8.96298 13.2554 9.83425 12.5948 10.5609L12.5669 10.5918C12.4889 10.6787 12.4005 10.777 12.3359 10.777C12.326 10.777 12.3152 10.7751 12.303 10.7711C12.1662 10.7159 12.0744 10.3726 12.0785 10.213C12.0786 10.2108 12.0786 10.2086 12.0786 10.2064L12.0768 7.1105C12.0768 7.09976 12.0761 7.08913 12.0747 7.07849C12.009 6.57522 11.8633 6.26195 11.3129 6.15026C11.2983 6.14724 11.2834 6.14575 11.2685 6.14575H8.5806C8.14268 6.14575 7.90138 6.33018 7.67456 6.60623C7.61334 6.68002 7.48589 6.83364 7.54906 7.01998C7.61315 7.20911 7.8212 7.24955 7.88894 7.26268C8.22522 7.32899 8.41477 7.54213 8.46846 7.91453C8.56219 8.56121 8.57371 9.25144 8.50471 10.0868C8.48547 10.3189 8.44742 10.4982 8.38471 10.6514C8.37015 10.6872 8.31849 10.8038 8.26582 10.8039C8.24908 10.8039 8.20067 10.7971 8.11248 10.7341C7.90397 10.5861 7.75142 10.3749 7.57357 10.114C6.96853 9.22796 6.46074 8.25191 6.02097 7.12938C5.85787 6.71615 5.55327 6.48481 5.16289 6.478C4.73395 6.47125 4.34504 6.46799 3.97413 6.46799C3.56886 6.46799 3.19314 6.47187 2.82625 6.47978C2.51217 6.48553 2.29492 6.58308 2.18061 6.76996C2.06611 6.95697 2.07356 7.20264 2.20276 7.50001C3.23702 9.88254 4.17478 11.6149 5.24345 13.1171C5.99225 14.1683 6.74333 14.8959 7.60686 15.4068C8.51664 15.9461 9.5362 16.2083 10.7237 16.2083C10.8583 16.2083 10.9975 16.2048 11.1379 16.198C11.8279 16.1632 12.0839 15.9044 12.1163 15.2082C12.1317 14.8525 12.1692 14.4793 12.338 14.1611C12.4445 13.9606 12.5439 13.9606 12.5765 13.9606C12.6394 13.9606 12.7174 13.9906 12.8011 14.0468C12.9513 14.1484 13.0801 14.2845 13.1857 14.4034C13.285 14.5163 13.3833 14.6304 13.4817 14.7446C13.6939 14.9909 13.9134 15.2456 14.1427 15.4871C14.6445 16.0162 15.1973 16.2488 15.8323 16.1983H18.2023C18.2073 16.1983 18.2124 16.1981 18.2175 16.1978C18.4536 16.1817 18.6582 16.0459 18.7786 15.8254C18.9279 15.5522 18.9249 15.2037 18.7706 14.893C18.5956 14.5415 18.3685 14.2413 18.1696 13.9941Z" fill="currentColor"/>

	</g>
	<g id="linkedin">
		<path d="M5.80637 7.88635H2.53296V18.3626H5.80637V7.88635Z" fill="currentColor"/>
<path d="M4.10079 2.94019C2.89376 2.94019 2.10001 3.72082 2.10001 4.75729C2.10001 5.77408 2.86752 6.57439 4.05487 6.57439H4.08111C5.31437 6.57439 6.08189 5.76752 6.07533 4.75729C6.04909 3.72082 5.30781 2.94019 4.10079 2.94019Z" fill="currentColor"/>
<path d="M14.7476 7.78796C12.8714 7.78796 11.6972 8.81131 11.4807 9.53291V7.88636H7.8006C7.84652 8.75883 7.8006 18.3626 7.8006 18.3626H11.4807V12.7014C11.4807 12.3799 11.4676 12.065 11.5594 11.842C11.8087 11.2123 12.3532 10.5563 13.3306 10.5563C14.6098 10.5563 15.1871 11.5271 15.1871 12.9441V18.3626H18.9V12.5374C18.9 9.29675 17.0764 7.78796 14.7476 7.78796Z" fill="currentColor"/>

	</g>
// Arrows!
	<g id="arrowGoTop">
<rect width="30" height="30" fill="black" fill-opacity="0.3"/>
<path d="M13.8072 11.2806V22H16.1928V11.2806L21.3134 16.0812L23 14.5L15 7L7 14.5L8.6866 16.0812L13.8072 11.2806Z" fill="white"/>
</g>

</svg>
